<mxfile host="app.diagrams.net" modified="2023-12-04T19:27:16.435Z" agent="Mozilla/5.0 (Windows NT 10.0; Win64; x64) AppleWebKit/537.36 (KHTML, like Gecko) Chrome/119.0.0.0 Safari/537.36" etag="QWowT3Fu5qBYXVjQnwDT" version="22.1.5" type="device">
  <diagram name="Trang-1" id="04rgESXN72pU6fnjlzwp">
    <mxGraphModel dx="794" dy="716" grid="1" gridSize="10" guides="1" tooltips="1" connect="1" arrows="1" fold="1" page="1" pageScale="1" pageWidth="827" pageHeight="1169" math="0" shadow="0">
      <root>
        <mxCell id="0" />
        <mxCell id="1" parent="0" />
        <UserObject label="Quản lý" tooltip="Quản lý&#xa;" id="NLjU-rHiKhZHkEEJ3fuX-1">
          <mxCell style="shape=umlActor;verticalLabelPosition=bottom;verticalAlign=top;html=1;outlineConnect=0;" vertex="1" parent="1">
            <mxGeometry x="40" y="340" width="30" height="60" as="geometry" />
          </mxCell>
        </UserObject>
        <mxCell id="NLjU-rHiKhZHkEEJ3fuX-13" style="edgeStyle=orthogonalEdgeStyle;rounded=0;orthogonalLoop=1;jettySize=auto;html=1;entryX=1;entryY=1;entryDx=0;entryDy=0;" edge="1" parent="1" source="NLjU-rHiKhZHkEEJ3fuX-3" target="NLjU-rHiKhZHkEEJ3fuX-5">
          <mxGeometry relative="1" as="geometry" />
        </mxCell>
        <mxCell id="NLjU-rHiKhZHkEEJ3fuX-3" value="Sửa thông tin phòng" style="ellipse;whiteSpace=wrap;html=1;" vertex="1" parent="1">
          <mxGeometry x="490" y="500" width="120" height="80" as="geometry" />
        </mxCell>
        <mxCell id="NLjU-rHiKhZHkEEJ3fuX-12" style="edgeStyle=orthogonalEdgeStyle;rounded=0;orthogonalLoop=1;jettySize=auto;html=1;" edge="1" parent="1" source="NLjU-rHiKhZHkEEJ3fuX-4" target="NLjU-rHiKhZHkEEJ3fuX-5">
          <mxGeometry relative="1" as="geometry" />
        </mxCell>
        <mxCell id="NLjU-rHiKhZHkEEJ3fuX-4" value="Xóa phòng" style="ellipse;whiteSpace=wrap;html=1;" vertex="1" parent="1">
          <mxGeometry x="480" y="360" width="120" height="80" as="geometry" />
        </mxCell>
        <mxCell id="NLjU-rHiKhZHkEEJ3fuX-5" value="Quản lý phòng" style="ellipse;whiteSpace=wrap;html=1;" vertex="1" parent="1">
          <mxGeometry x="220" y="420" width="120" height="80" as="geometry" />
        </mxCell>
        <mxCell id="NLjU-rHiKhZHkEEJ3fuX-6" value="Thêm phòng" style="ellipse;whiteSpace=wrap;html=1;" vertex="1" parent="1">
          <mxGeometry x="230" y="280" width="120" height="80" as="geometry" />
        </mxCell>
        <mxCell id="NLjU-rHiKhZHkEEJ3fuX-7" value="Quản lý thông tin khách sạn" style="ellipse;whiteSpace=wrap;html=1;" vertex="1" parent="1">
          <mxGeometry x="240" y="140" width="120" height="80" as="geometry" />
        </mxCell>
        <mxCell id="NLjU-rHiKhZHkEEJ3fuX-8" value="" style="endArrow=none;html=1;rounded=0;entryX=0;entryY=0.75;entryDx=0;entryDy=0;entryPerimeter=0;" edge="1" parent="1" source="NLjU-rHiKhZHkEEJ3fuX-1" target="NLjU-rHiKhZHkEEJ3fuX-7">
          <mxGeometry width="50" height="50" relative="1" as="geometry">
            <mxPoint x="380" y="390" as="sourcePoint" />
            <mxPoint x="430" y="340" as="targetPoint" />
          </mxGeometry>
        </mxCell>
        <mxCell id="NLjU-rHiKhZHkEEJ3fuX-10" value="" style="endArrow=none;html=1;rounded=0;entryX=-0.008;entryY=0.65;entryDx=0;entryDy=0;entryPerimeter=0;" edge="1" parent="1" source="NLjU-rHiKhZHkEEJ3fuX-1" target="NLjU-rHiKhZHkEEJ3fuX-6">
          <mxGeometry width="50" height="50" relative="1" as="geometry">
            <mxPoint x="380" y="390" as="sourcePoint" />
            <mxPoint x="430" y="340" as="targetPoint" />
          </mxGeometry>
        </mxCell>
        <mxCell id="NLjU-rHiKhZHkEEJ3fuX-11" value="" style="endArrow=none;html=1;rounded=0;entryX=-0.042;entryY=0.425;entryDx=0;entryDy=0;entryPerimeter=0;" edge="1" parent="1" source="NLjU-rHiKhZHkEEJ3fuX-1" target="NLjU-rHiKhZHkEEJ3fuX-5">
          <mxGeometry width="50" height="50" relative="1" as="geometry">
            <mxPoint x="380" y="390" as="sourcePoint" />
            <mxPoint x="430" y="340" as="targetPoint" />
          </mxGeometry>
        </mxCell>
      </root>
    </mxGraphModel>
  </diagram>
</mxfile>
